<?xml version="1.0" standalone="no"?>
<!DOCTYPE svg PUBLIC "-//W3C//DTD SVG 20010904//EN"
 "http://www.w3.org/TR/2001/REC-SVG-20010904/DTD/svg10.dtd">
<svg version="1.0" xmlns="http://www.w3.org/2000/svg"
 width="796.000000pt" height="796.000000pt" viewBox="0 0 796.000000 796.000000"
 preserveAspectRatio="xMidYMid meet">
<metadata>
Created by potrace 1.11, written by Peter Selinger 2001-2013
</metadata>
<g transform="translate(0.000000,796.000000) scale(0.100000,-0.100000)"
fill="#000000" stroke="none">
<path d="M0 3975 l0 -1565 3980 0 3980 0 0 1565 0 1565 -3980 0 -3980 0 0
-1565z m7221 1067 c39 -20 58 -38 76 -71 l23 -44 0 -944 c0 -770 -2 -950 -14
-976 -18 -44 -77 -94 -126 -107 -27 -7 -207 -10 -553 -8 -461 3 -515 5 -543
20 -42 23 -81 71 -94 116 -8 26 -10 329 -8 979 l3 941 31 39 c16 21 50 48 74
61 44 22 45 22 561 22 l517 0 53 -28z m-5656 -317 c96 -21 170 -59 233 -122
52 -52 105 -146 118 -209 l6 -32 -93 -16 c-52 -9 -108 -19 -125 -22 -29 -5
-32 -3 -58 50 -52 106 -145 153 -287 143 -174 -12 -278 -110 -310 -292 -15
-90 -6 -231 21 -319 28 -90 106 -173 193 -205 107 -39 235 -24 360 41 l57 31
0 78 0 79 -145 0 -145 0 0 105 c0 100 1 105 23 110 12 3 135 4 272 3 l250 -3
3 -247 2 -246 -43 -36 c-52 -43 -168 -99 -262 -127 -98 -29 -293 -37 -395 -15
-229 48 -396 219 -446 457 -20 92 -14 319 10 392 67 206 226 360 416 401 86
19 258 19 345 1z m1189 -364 c68 -33 104 -70 126 -131 9 -24 15 -130 19 -340
6 -278 9 -310 28 -357 l21 -53 -123 0 -123 0 -11 45 c-13 50 -10 50 -79 -2
-56 -42 -128 -63 -218 -63 -102 0 -171 27 -227 90 -87 97 -92 241 -9 331 58
65 126 93 323 134 128 26 179 44 179 63 0 46 -23 94 -53 112 -38 23 -147 27
-187 7 -22 -11 -63 -62 -72 -89 -3 -8 -30 -7 -93 1 -116 16 -125 19 -125 39 1
32 39 101 81 147 79 86 146 106 341 102 131 -3 139 -5 202 -36z m992 11 c22
-11 57 -39 77 -61 l37 -41 62 50 c71 57 133 80 218 80 120 0 216 -54 262 -148
23 -46 23 -53 26 -409 l3 -363 -119 0 c-101 0 -121 3 -126 16 -3 9 -6 152 -6
318 1 173 -3 313 -9 328 -5 14 -22 35 -38 48 -56 44 -171 11 -208 -60 -25 -49
-35 -156 -35 -407 l0 -243 -119 0 -119 0 -4 323 c-3 283 -5 326 -21 354 -22
42 -45 53 -105 53 -53 0 -100 -25 -134 -70 -30 -40 -38 -128 -38 -402 l0 -258
-120 0 -120 0 0 450 0 450 110 0 110 0 0 -56 0 -57 44 41 c78 72 138 93 251
89 57 -3 92 -10 121 -25z m1389 13 c180 -46 289 -212 298 -450 l2 -70 -298 -3
-299 -2 7 -43 c8 -51 46 -119 78 -140 93 -61 210 -30 246 66 6 16 18 27 28 27
33 -1 215 -29 220 -34 10 -10 -47 -113 -88 -159 -25 -29 -65 -59 -107 -79 -65
-32 -69 -33 -197 -33 -110 1 -138 4 -186 23 -100 40 -174 119 -219 237 -21 52
-24 78 -24 195 -1 107 3 146 18 190 48 139 142 235 271 276 56 18 179 17 250
-1z"/>
<path d="M6587 4814 c-4 -4 -7 -24 -7 -45 0 -36 -2 -38 -37 -45 -110 -19 -225
-116 -259 -216 -25 -75 -23 -186 7 -263 31 -84 109 -160 211 -205 l78 -35 0
-172 c0 -95 -4 -173 -8 -173 -28 0 -112 117 -112 156 0 15 -9 16 -82 10 -142
-12 -150 -14 -144 -45 37 -161 150 -281 294 -312 l52 -11 0 -74 0 -74 65 0 65
0 0 74 0 74 46 11 c233 59 357 286 279 513 -33 94 -141 178 -282 219 l-43 12
0 164 c0 89 4 163 8 163 16 0 61 -55 77 -94 l16 -38 67 6 c160 16 155 11 120
103 -15 41 -38 75 -78 115 -50 50 -67 60 -133 79 l-76 23 -3 40 -3 41 -55 3
c-31 2 -59 0 -63 -4z m-7 -414 l0 -141 -29 16 c-62 32 -90 129 -56 195 15 28
60 70 76 70 5 0 9 -63 9 -140z m179 -450 c73 -37 103 -107 82 -187 -12 -45
-63 -99 -103 -108 l-28 -7 0 161 c0 89 2 161 5 161 3 0 23 -9 44 -20z"/>
<path d="M2560 3859 c-149 -33 -169 -40 -196 -72 -65 -78 40 -179 153 -148 55
16 100 46 118 81 18 34 33 161 19 159 -5 -1 -47 -10 -94 -20z"/>
<path d="M4930 4188 c-47 -32 -68 -66 -79 -120 l-8 -48 175 0 175 0 -7 43 c-9
56 -46 110 -89 130 -51 25 -127 22 -167 -5z"/>
</g>
</svg>
