<?xml version="1.0" encoding="UTF-8" standalone="no"?>
<svg
   xmlns:dc="http://purl.org/dc/elements/1.1/"
   xmlns:cc="http://creativecommons.org/ns#"
   xmlns:rdf="http://www.w3.org/1999/02/22-rdf-syntax-ns#"
   xmlns:svg="http://www.w3.org/2000/svg"
   xmlns="http://www.w3.org/2000/svg"
   id="svg8"
   version="1.1"
   viewBox="0 0 36.152832 9.3792725"
   height="9.3792725mm"
   width="36.152832mm">
  <defs
     id="defs2" />
  <metadata
     id="metadata5">
    <rdf:RDF>
      <cc:Work
         rdf:about="">
        <dc:format>image/svg+xml</dc:format>
        <dc:type
           rdf:resource="http://purl.org/dc/dcmitype/StillImage" />
        <dc:title></dc:title>
      </cc:Work>
    </rdf:RDF>
  </metadata>
  <g
     style="fill:#ffffff"
     id="layer1"
     transform="translate(-2.4214387e-8,2.721888e-4)">
    <g
       id="flowRoot3729"
       transform="scale(0.26458333)" />
    <g
       id="text3739"
       aria-label="Game$">
      <path
         id="path35"
         style="fill:#ffffff;stroke-width:0.26458332"
         d="m 7.8341469,1.0177535 q 0,0.2325439 -0.1291911,0.3979085 -0.1240234,0.1601969 -0.3565673,0.1601969 -0.08785,0 -0.1963705,-0.077515 Q 7.0486652,1.415662 6.9608152,1.3381474 6.878133,1.2554651 6.7696125,1.1934534 6.6610919,1.1314416 6.5319009,1.1314416 q -0.6356201,0 -1.6381429,0.4237468 Q 4.3924966,1.7722294 3.9584146,2.0512821 3.5243326,2.3251672 3.1057535,2.6713993 2.6871744,3.0176314 2.3099365,3.4413781 1.9378662,3.8599572 1.6536458,4.2785363 1.390096,4.6557742 1.2402344,5.1932091 1.100708,5.7203087 1.100708,6.2215701 q 0,0.2377116 0.2428792,0.4960937 Q 1.5864664,6.9657107 1.8448486,7.0380577 2.1600748,7.12074 2.5941568,7.12074 2.9197184,7.1259076 3.2917887,7.0432253 3.663859,6.9553754 4.0359293,6.8106814 4.4079996,6.6608197 4.7593993,6.4747846 5.110799,6.2835818 5.400187,6.0768761 5.5035399,5.9941938 5.617228,5.8856733 5.7360838,5.7719851 5.8549396,5.6221235 5.9789631,5.4722618 6.0616453,5.3430707 q 0.08785,-0.129191 0.1395264,-0.2428792 0.036174,-0.051676 0.036174,-0.1343587 0,-0.077515 -0.036174,-0.1912028 -0.031006,-0.1188558 -0.031006,-0.1912028 0,-0.1912028 0.4650878,-0.1912028 0.144694,0 0.434082,0.217041 0.2893881,0.217041 0.2893881,0.3358968 0,0.015503 -0.3203939,0.6562907 Q 6.878133,5.9218468 6.790283,6.0975466 6.7076007,6.2732465 6.6920978,6.30942 6.6042479,6.5109581 6.5163979,6.7641726 6.428548,7.0122195 6.3406981,7.3171104 6.1598306,7.9320599 6.1598306,8.1904421 q -0.010335,0.056844 0.010335,0.1085205 0.025838,0.056844 0.051676,0.098185 0.031006,0.046509 0.056844,0.077515 0.031006,0.036173 0.031006,0.046509 0,0.1240235 -0.046509,0.2273763 -0.041341,0.1085205 -0.1188558,0.1860352 -0.072347,0.082682 -0.1808675,0.1291911 -0.1033528,0.046509 -0.2273763,0.046509 -0.2687174,0 -0.361735,-0.1860352 -0.093018,-0.1808675 -0.093018,-0.4909261 0,-0.082682 0.00517,-0.1601969 0.010335,-0.077515 0.020671,-0.1550293 0.031006,-0.160197 0.077515,-0.3565674 0.025838,-0.098185 0.046509,-0.1705322 0.020671,-0.077515 0.031006,-0.1291911 0.072347,-0.289388 0.072347,-0.3927409 0,-0.051676 -0.020671,-0.051676 -0.1085205,0 -0.6769613,0.2842204 -0.289388,0.1395263 -0.4650878,0.2222086 -0.1705323,0.082682 -0.232544,0.1085205 -0.8991699,0.3669027 -1.6949869,0.3669027 -0.5115967,0 -1.0800374,-0.2067057 Q 0.78548177,7.5806602 0.3927409,7.1879193 2.4214387e-8,6.7900108 2.4214387e-8,6.2680789 2.4214387e-8,4.7384565 1.4107666,3.1003137 2.0308838,2.3820113 2.6199951,1.8859175 3.1987711,1.4053267 4.0359293,0.97641235 4.170288,0.90406535 4.3408202,0.83171835 4.5113524,0.7542037 4.7180582,0.67668905 5.1366372,0.51649212 5.5500487,0.39763633 5.9634601,0.27878054 6.3200275,0.23227175 q 0.2222087,-0.0310059 0.666626,-0.0310059 0.1601969,-0.005168 0.3152262,0.0620117 0.1550293,0.0620117 0.2738851,0.18086751 0.1188558,0.11368814 0.1912028,0.26354979 0.072347,0.14986165 0.067179,0.31005859 z" />
      <path
         id="path37"
         style="fill:#ffffff;stroke-width:0.26458332"
         d="m 11.999267,3.4103722 q 0,-0.010335 -0.0155,-0.056844 -0.0155,-0.046509 -0.04651,-0.093018 -0.03101,-0.051676 -0.07752,-0.08785 -0.04134,-0.041341 -0.09302,-0.041341 h -0.01034 q -0.191203,0.020671 -0.408244,0.1291911 -0.217041,0.1033529 -0.45992,0.3255615 -0.242879,0.217041 -0.511596,0.5632731 Q 10.10791,4.4955773 9.8185221,4.991671 9.7306722,5.1415327 9.6221517,5.3224002 9.5187988,5.4981 9.4206136,5.7151411 9.327596,5.9270144 9.2604167,6.1698936 9.198405,6.4127729 9.198405,6.6814903 q 0,0.1601969 0.1136881,0.2428792 0.1188558,0.082682 0.2428792,0.082682 0.1291911,0 0.3358968,-0.1395263 0.2067059,-0.144694 0.4444169,-0.377238 0.24288,-0.2377116 0.490927,-0.5374349 0.253214,-0.3048909 0.465087,-0.6252848 0.217041,-0.3203939 0.372071,-0.6304524 0.160197,-0.3100586 0.217041,-0.5632731 0.0155,-0.077515 0.03617,-0.1808675 0.02067,-0.1085205 0.03617,-0.2118734 0.02067,-0.1085205 0.03101,-0.1963704 0.0155,-0.093018 0.0155,-0.1343588 z m 4.041097,0.594279 q 0,0.1756999 -0.103352,0.3772379 -0.09819,0.1963705 -0.222209,0.3617351 -0.325562,0.4392496 -0.682129,0.8061523 -0.3514,0.361735 -0.713135,0.6872965 -0.377238,0.3410644 -0.754476,0.5322672 -0.37207,0.1912028 -0.671793,0.1912028 -0.129191,0 -0.258382,-0.062012 -0.124024,-0.062012 -0.237712,-0.1601969 -0.10852,-0.1033529 -0.19637,-0.2377116 -0.08268,-0.1343587 -0.129191,-0.2790527 -0.02584,-0.077515 -0.04651,-0.1756999 -0.02067,-0.1033529 -0.04134,-0.1860351 -0.02067,-0.08785 -0.04651,-0.144694 -0.02584,-0.062012 -0.05684,-0.062012 -0.02067,0 -0.08785,0.067179 -0.06718,0.067179 -0.160197,0.1756999 -0.08785,0.1033528 -0.191203,0.2377115 -0.103353,0.1291911 -0.206706,0.2532146 -0.09818,0.1240234 -0.180867,0.2273762 -0.07752,0.1033529 -0.124024,0.1550293 -0.160197,0.1808675 -0.382405,0.3720703 -0.217041,0.1860352 -0.43925,0.3410645 -0.2170409,0.1550293 -0.403076,0.2532145 -0.1808675,0.098185 -0.2687175,0.098185 -0.1963704,0 -0.3824056,-0.062012 Q 8.8728434,7.7046836 8.7333171,7.5806602 8.5937907,7.4566368 8.5059408,7.2757693 8.4232585,7.0949018 8.4232585,6.8623578 q 0,-0.3824056 0.1498616,-0.8733317 Q 8.7281494,5.4981 8.9761963,4.991671 9.2294108,4.485242 9.5549723,4.0201541 9.8805338,3.5498986 10.231934,3.2140018 q 0.408243,-0.3875732 0.852661,-0.5684407 0.449585,-0.1860352 0.91984,-0.1860352 0.08785,0 0.149862,0.036173 0.06718,0.036174 0.113688,0.093018 0.04651,0.056844 0.08268,0.1291911 0.03617,0.067179 0.07235,0.1395263 0.02067,0.046509 0.08785,0.1033529 0.06718,0.056844 0.139527,0.1188558 0.07235,0.056844 0.124023,0.1136881 0.05684,0.056844 0.05684,0.1085205 0,0.1085205 -0.04651,0.2428793 -0.04134,0.129191 -0.09302,0.3048909 -0.05168,0.1705322 -0.09819,0.3927409 -0.04134,0.217041 -0.04134,0.5012614 0,0.1860351 0.03101,0.4237467 0.03617,0.2377116 0.103353,0.4547526 0.07235,0.2118733 0.180868,0.3565673 0.10852,0.1446941 0.253214,0.1446941 0.1757,0 0.3514,-0.098185 0.1757,-0.1033528 0.403076,-0.2842203 0.506429,-0.4030762 0.961182,-0.883667 0.454752,-0.4805908 0.930175,-0.956014 0.08268,-0.082682 0.15503,-0.082682 0.118855,0 0.118855,0.1860352 z" />
      <path
         id="path39"
         style="fill:#ffffff;stroke-width:0.26458332"
         d="m 26.442829,5.9941938 q 0,0.046509 -0.05168,0.1291911 -0.04651,0.077515 -0.118856,0.1653645 -0.06718,0.082682 -0.155029,0.160197 -0.08268,0.077515 -0.149862,0.1188558 -0.532267,0.3203938 -0.992187,0.4960937 -0.454753,0.1705322 -0.940511,0.1705322 -0.26355,0 -0.470256,-0.1033528 Q 23.362914,7.0277224 23.207885,6.8261843 23.052856,6.6246462 22.934,6.3300906 22.820312,6.0355349 22.732462,5.6531293 22.685953,5.4464236 22.644612,5.2293826 22.603271,5.0123416 22.556762,4.8366417 22.510253,4.6557742 22.448241,4.5420861 22.38623,4.4232303 22.293212,4.4232303 q -0.217041,0 -0.485758,0.3772379 -0.268718,0.377238 -0.692465,1.1213786 -0.418579,0.7441406 -0.707967,1.1317138 -0.289388,0.3875732 -0.527099,0.3875732 -0.356568,0 -0.480591,-0.3358968 -0.113688,-0.3410644 -0.139526,-1.1420491 -0.0052,-0.3152262 -0.03617,-0.5529378 -0.03101,-0.2428792 -0.07751,-0.4134114 -0.04651,-0.1705323 -0.113688,-0.2790528 -0.06201,-0.1136881 -0.129191,-0.1756998 -0.26355,0.1601969 -0.506429,0.4185791 -0.237711,0.2583821 -0.449585,0.5529378 -0.211873,0.2945556 -0.397908,0.5942789 -0.180868,0.2997233 -0.325562,0.5477702 -0.07235,0.1240234 -0.165364,0.2842204 -0.09302,0.1601969 -0.191203,0.3255615 -0.09302,0.1601969 -0.186035,0.3048909 -0.08785,0.144694 -0.15503,0.2377116 -0.149861,0.217041 -0.361735,0.217041 -0.392741,0 -0.516764,-0.4030762 -0.03101,-0.1033528 -0.05168,-0.1860351 -0.02067,-0.082682 -0.03617,-0.1653646 -0.01033,-0.082682 -0.02067,-0.1756998 -0.0052,-0.098185 -0.0052,-0.2222087 0,-0.2067057 0.02067,-0.4392497 0.02067,-0.2325439 0.05168,-0.4702555 0.03617,-0.2377116 0.07752,-0.4754231 0.04651,-0.2428793 0.08785,-0.4702556 0.08785,-0.4444173 0.139527,-0.8061523 0.05168,-0.361735 0.05168,-0.6872965 0,-0.1240234 0.07235,-0.2067057 0.07235,-0.08785 0.201538,-0.08785 0.516765,0 0.516765,0.7079671 0,0.1860352 -0.03101,0.4030762 -0.02584,0.217041 -0.07235,0.4547526 -0.04134,0.2325439 -0.09302,0.4754231 -0.05168,0.2377116 -0.09818,0.4702556 -0.02584,0.1395263 -0.05168,0.2997233 -0.02584,0.1550293 -0.05168,0.2997233 -0.02067,0.1395263 -0.03617,0.2532145 -0.0155,0.1085205 -0.0155,0.1601969 0.06718,-0.067179 0.165364,-0.1963704 0.103353,-0.1291911 0.222209,-0.304891 0.118856,-0.1756998 0.253214,-0.3875732 0.139527,-0.2118734 0.279053,-0.4392497 0.289388,-0.4547526 0.537435,-0.8009846 0.253215,-0.3513998 0.470256,-0.5994466 0.434082,-0.4909261 0.935343,-0.4909261 0.124023,0 0.217041,0.072347 0.09302,0.072347 0.160197,0.1912028 0.06718,0.1188558 0.113688,0.2687174 0.04651,0.1498617 0.07752,0.304891 0.05168,0.2635497 0.09819,0.5839436 0.05168,0.3203939 0.09818,0.5994466 0.05168,0.2790527 0.103353,0.4702555 0.05684,0.1860352 0.129191,0.1860352 0.05684,0 0.134359,-0.082682 0.08268,-0.08785 0.165364,-0.217041 0.08785,-0.1343587 0.1757,-0.2997233 0.09302,-0.1653646 0.1757,-0.3203939 0.08268,-0.1601969 0.149862,-0.2945556 0.07235,-0.1343588 0.113688,-0.2118734 0.113688,-0.2015381 0.26355,-0.4392497 0.149861,-0.2428792 0.320394,-0.4495849 0.175699,-0.2118734 0.377238,-0.3513997 0.201538,-0.1395264 0.423746,-0.1395264 0.232544,0 0.361735,0.1085205 0.129191,0.1033529 0.211874,0.3152262 0.08785,0.2067058 0.149861,0.521932 0.06718,0.3152262 0.165365,0.7338053 0.160197,0.6821289 0.346232,1.0180257 0.186035,0.3358968 0.490926,0.3358968 0.191203,0 0.387573,-0.025838 0.201538,-0.025838 0.418579,-0.082682 0.217041,-0.062012 0.454753,-0.160197 0.242879,-0.1033528 0.516764,-0.2583821 0.02067,-0.010335 0.06201,-0.031006 0.04651,-0.025838 0.09302,-0.046509 0.05168,-0.025838 0.09302,-0.041341 0.04134,-0.015503 0.05684,-0.015503 0.02067,0 0.04651,0.020671 0.03101,0.020671 0.05684,0.056844 0.02584,0.031006 0.04651,0.072347 0.02067,0.036174 0.02067,0.067179 z" />
      <path
         id="path41"
         style="fill:#ffffff;stroke-width:0.26458332"
         d="m 28.794108,3.3535282 q 0,-0.056844 -0.03101,-0.1033529 -0.03101,-0.046509 -0.07751,-0.077515 -0.04134,-0.031006 -0.09302,-0.046509 -0.04651,-0.020671 -0.08268,-0.020671 -0.227377,0 -0.465088,0.1653646 -0.237712,0.1601969 -0.444418,0.4495849 -0.206705,0.289388 -0.361735,0.6872966 -0.155029,0.3979085 -0.211873,0.8629963 0.07235,-0.046509 0.191203,-0.1343587 0.118856,-0.08785 0.253214,-0.1912028 0.139527,-0.1085205 0.273885,-0.217041 0.139527,-0.1085205 0.248047,-0.2015381 0.237712,-0.201538 0.392741,-0.3565673 0.155029,-0.160197 0.242879,-0.289388 0.09302,-0.1343588 0.129192,-0.2583822 0.03617,-0.1291911 0.03617,-0.2687174 z m 2.397786,2.2065836 q 0,0.1808675 -0.134358,0.3927408 -0.134359,0.2118734 -0.382406,0.4754232 -0.28422,0.2997233 -0.625285,0.5581054 -0.341064,0.2532146 -0.702799,0.4444174 -0.361735,0.1860351 -0.733806,0.2945556 -0.37207,0.1085205 -0.718302,0.1085205 -0.81132,0 -1.255737,-0.5219319 -0.444417,-0.521932 -0.444417,-1.5296224 0,-0.3203939 0.05684,-0.651123 0.05684,-0.3358968 0.165364,-0.6614583 0.113688,-0.3255615 0.279053,-0.6304525 0.170532,-0.3048909 0.392741,-0.5684407 0.139526,-0.160197 0.310058,-0.3255615 0.170533,-0.1653646 0.377238,-0.2945557 0.206706,-0.1343587 0.449585,-0.217041 0.248047,-0.082682 0.537435,-0.082682 0.206706,0 0.37207,0.082682 0.165365,0.077515 0.279053,0.2015381 0.113688,0.1240234 0.170532,0.2790527 0.06201,0.1550293 0.06201,0.3048909 0,0.3152263 -0.170532,0.6407878 -0.170532,0.3203939 -0.480591,0.651123 -0.310058,0.3255615 -0.744141,0.6562907 -0.434082,0.3255615 -0.966349,0.651123 -0.07235,0.041341 -0.144694,0.093018 -0.07235,0.046509 -0.07235,0.1188558 0,0.1550293 0.04134,0.3255615 0.04134,0.1705322 0.149862,0.3152262 0.108521,0.1395264 0.289388,0.232544 0.186035,0.093018 0.470256,0.093018 0.361735,0 0.733805,-0.1136881 0.377238,-0.1188558 0.733805,-0.3255615 0.361735,-0.2067058 0.697632,-0.4909261 0.341064,-0.2842204 0.63562,-0.6149495 0.165365,-0.1808676 0.26355,-0.1808676 0.05684,0 0.08268,0.067179 0.02584,0.067179 0.02584,0.2222087 z" />
      <path
         id="path43"
         style="fill:#ffffff;stroke-width:0.26458332"
         d="m 36.152832,2.009941 q 0,0.2635498 -0.155029,0.3410644 -0.06201,0.025838 -0.346232,0.041341 -0.294556,0.015503 -0.666626,0.015503 -0.186036,0 -0.299724,0 -0.10852,0 -0.149861,0.00517 -0.01034,0.1240235 -0.03101,0.289388 -0.0155,0.1653646 -0.04134,0.3720703 -0.05684,0.4134115 -0.07751,0.6201172 -0.01033,0.1033529 -0.0155,0.2118734 -0.0052,0.1085205 -0.0052,0.2222086 0,0.015503 0.04134,0.041341 0.04134,0.025838 0.04651,0.051676 0.113688,0.067179 0.211874,0.1291911 0.09818,0.056844 0.186035,0.1136881 0.103353,0.072347 0.253214,0.1395264 0.160197,0.067179 0.258383,0.1291911 0.09819,0.062012 0.165364,0.1860351 0.118856,0.2067057 0.118856,0.594279 0,0.4702555 -0.465088,0.7699788 -0.454753,0.2997233 -1.080037,0.4805908 0,0.067179 -0.02067,0.2842204 -0.0155,0.2118733 -0.05168,0.5736083 -0.03617,0.3617351 -0.05168,0.5581055 -0.0155,0.2015381 -0.0155,0.2428792 0,0.1188558 0.05168,0.3720703 0.05684,0.2738851 0.05684,0.3824056 0,0.041341 -0.03617,0.077515 -0.03101,0.036173 -0.08268,0.062012 -0.04651,0.025838 -0.108521,0.041341 Q 33.780884,9.379 33.718872,9.379 33.465658,9.379 33.37264,9.2498089 33.274455,9.1206178 33.274455,8.8415651 V 8.6762005 q 0,-0.093018 0.01033,-0.2687174 0.0155,-0.1705322 0.04134,-0.434082 0.02584,-0.2635498 0.04134,-0.4702555 0.0155,-0.2118734 0.0155,-0.3720703 -0.05684,0.025838 -0.149861,0.041341 -0.08785,0.015503 -0.196371,0.036173 -0.10852,0.015503 -0.227376,0.036174 -0.118856,0.015503 -0.232544,0.036174 -0.07751,0.020671 -0.1757,0.046509 -0.09819,0.020671 -0.217041,0.051676 -0.232544,0.056844 -0.408244,0.098185 -0.1757,0.036174 -0.279052,0.036174 -0.1757,0 -0.361736,-0.067179 -0.19637,-0.072347 -0.19637,-0.1963705 0,-0.1395263 0.05684,-0.2480468 0.06201,-0.1085205 0.160197,-0.1912028 0.09819,-0.082682 0.227376,-0.1343587 0.134359,-0.056844 0.284221,-0.082682 0.08785,-0.015503 0.217041,-0.025838 0.129191,-0.015503 0.310058,-0.025838 0.248047,-0.02067 0.418579,-0.036173 0.1757,-0.015503 0.273885,-0.031006 0.191203,-0.036173 0.558106,-0.1860352 0.0052,-0.025838 0.02067,-0.1498616 0.0155,-0.1240235 0.04651,-0.3565674 0.03617,-0.2325439 0.05684,-0.4134114 0.02067,-0.1860352 0.03101,-0.3203939 0.01034,-0.1343587 0.0155,-0.2790527 0.01033,-0.1498617 0.01033,-0.304891 -0.10852,-0.082682 -0.645955,-0.2945556 -0.1757,-0.056844 -0.397908,-0.1550293 Q 32.344279,3.9116336 32.261597,3.8444543 31.998047,3.6377485 31.863688,3.4310428 31.729329,3.2191694 31.729329,2.9401167 q 0,-0.2583821 0.413412,-0.5012614 0.423747,-0.2480468 0.935343,-0.4030761 0.516765,-0.160197 0.79065,-0.1705322 0.03101,-0.1912028 0.03101,-0.3927409 V 0.33045697 q 0,-0.15502929 0.175699,-0.23771158 0.1757,-0.0930175788 0.33073,-0.0930175788 0.144694,0 0.242879,0.1395263588 0.09819,0.13952637 0.09819,0.43408202 0,0.18603515 -0.08268,0.58394371 -0.07752,0.4030761 -0.07752,0.5581054 0.06201,-0.010335 0.155029,-0.010335 0.09302,-0.00517 0.217041,-0.010335 0.124024,-0.00517 0.206706,-0.00517 0.08785,0 0.139526,-0.00517 0.02584,-0.00517 0.07751,-0.010335 0.05168,-0.010335 0.139526,-0.031006 0.160197,-0.036173 0.284221,-0.036173 0.346232,0 0.346232,0.4030762 z m -2.335775,0.5322672 q -1.054199,0.217041 -1.219564,0.5374349 0.02067,0.1291911 0.454753,0.3669026 0.43925,0.232544 0.656291,0.3100586 z m 1.193726,2.9403889 q 0,-0.1550293 -0.258382,-0.3979085 -0.26355,-0.2480469 -0.449585,-0.3513997 -0.06718,0.4650878 -0.09819,0.8061523 -0.03101,0.3358968 -0.03101,0.5581054 0.08268,-0.046509 0.165364,-0.093018 0.08785,-0.046509 0.1757,-0.098185 0.08785,-0.051676 0.170532,-0.1033528 0.08785,-0.051676 0.165365,-0.1085205 0.160197,-0.1136882 0.160197,-0.2118734 z" />
    </g>
  </g>
</svg>